<?xml version="1.0" encoding="UTF-8"?>
<svg width="370px" height="451px" viewBox="0 0 370 451" version="1.1" xmlns="http://www.w3.org/2000/svg" xmlns:xlink="http://www.w3.org/1999/xlink">
    <title>coding banner child</title>
    <defs>
        <linearGradient x1="0%" y1="49.9891328%" x2="99.9832916%" y2="49.9891328%" id="linearGradient-1">
            <stop stop-color="#22115B" offset="0%"></stop>
            <stop stop-color="#401B89" offset="100%"></stop>
        </linearGradient>
        <linearGradient x1="0%" y1="50%" x2="100%" y2="50%" id="linearGradient-2">
            <stop stop-color="#22115B" offset="0%"></stop>
            <stop stop-color="#401B89" offset="100%"></stop>
        </linearGradient>
        <linearGradient x1="0%" y1="50%" x2="100%" y2="50%" id="linearGradient-3">
            <stop stop-color="#22115B" offset="0%"></stop>
            <stop stop-color="#401B89" offset="100%"></stop>
        </linearGradient>
    </defs>
    <g id="assets" stroke="none" stroke-width="1" fill="none" fill-rule="evenodd">
        <g id="Group-38" transform="translate(5.000000, 1.000000)">
            <g id="Group-20">
                <g id="Group" opacity="0.8" transform="translate(0.000000, 172.428571)" fill-rule="nonzero">
                    <rect id="Rectangle" fill="#FFFFFF" opacity="0.2" x="0.514285714" y="1.09142857" width="114.771429" height="105.205714" rx="5.41714286"></rect>
                    <path d="M110.88,0.148571429 L4.90285714,0.148571429 C3.73595935,0.148571429 2.61710321,0.613281027 1.79359185,1.44000923 C0.970080493,2.26673742 0.50972752,3.38739682 0.514252184,4.55428571 L0.514252184,5.48 C0.514252184,4.31607849 0.976651734,3.19982818 1.79966853,2.37681138 C2.62268532,1.55379459 3.73893563,1.09142857 4.90285714,1.09142857 L110.88,1.09142857 C113.303741,1.09142857 115.268571,3.05625893 115.268571,5.48 L115.268571,4.55428571 C115.268571,2.12775591 113.306511,0.158013179 110.88,0.148571429 Z" id="Path" fill="#00B3FF" opacity="0.3"></path>
                    <path d="M110.88,1.09142857 L4.90285714,1.09142857 C2.47911607,1.09142857 0.514285714,3.05625893 0.514285714,5.48 L0.514285714,17.2742857 L115.268571,17.2742857 L115.268571,5.48 C115.268571,3.05625893 113.303741,1.09142857 110.88,1.09142857 Z" id="Path" fill="#00B3FF" opacity="0.3"></path>
                    <path d="M110.88,1.09142857 L4.90285714,1.09142857 C2.47911607,1.09142857 0.514285714,3.05625893 0.514285714,5.48 L0.514285714,5.63428571 C0.514285714,4.4703642 0.976651734,3.35411389 1.79966853,2.5310971 C2.62268532,1.70808031 3.73893563,1.24571429 4.90285714,1.24571429 L110.88,1.24571429 C113.303741,1.24571429 115.268571,3.21054464 115.268571,5.63428571 L115.268571,5.48 C115.268571,3.05625893 113.303741,1.09142857 110.88,1.09142857 Z" id="Path" fill="#00E6FF" opacity="0.4"></path>
                    <rect id="Rectangle" fill="#00E6FF" opacity="0.4" x="0.514285714" y="16.6228571" width="114.771429" height="1"></rect>
                    <rect id="Rectangle" fill="url(#linearGradient-1)" opacity="0.81" style="mix-blend-mode: multiply;" x="6.77142857" y="22.1428571" width="102.6" height="78.8742857" rx="4.11428571"></rect>
                    <circle id="Oval" fill="#0042C0" opacity="0.3" cx="9.17142857" cy="9.18285714" r="4.37142857"></circle>
                    <path d="M9.17142857,13.3828571 C6.79314924,13.3831737 4.85459606,11.4751273 4.81714286,9.09714286 C4.81714286,9.09714286 4.81714286,9.09714286 4.81714286,9.18285714 C4.96190267,11.49562 6.87985405,13.2972768 9.19714286,13.2972768 C11.5144317,13.2972768 13.432383,11.49562 13.5771429,9.18285714 C13.5771429,9.18285714 13.5771429,9.18285714 13.5771429,9.09714286 C13.5395429,11.4952909 11.5697006,13.4114799 9.17142857,13.3828571 Z" id="Path" fill="#00E6FF" opacity="0.4"></path>
                    <circle id="Oval" fill="#00B3FF" opacity="0.3" cx="9.17142857" cy="9.18285714" r="3.39428571"></circle>
                    <circle id="Oval" fill="#FF3D40" cx="9.17142857" cy="9.18285714" r="2.77714286"></circle>
                    <path d="M9.17142857,6.49142857 C9.92121994,6.47273362 10.6463311,6.75998903 11.1799023,7.28709275 C11.7134736,7.81419646 12.0095501,8.53575069 12,9.28571429 L12,9.28571429 C12.0819882,8.24459199 11.5729618,7.24549261 10.6825195,6.69980935 C9.79207719,6.15412609 8.67077996,6.15412609 7.78033767,6.69980935 C6.88989538,7.24549261 6.38086894,8.24459199 6.46285714,9.28571429 L6.46285714,9.28571429 C6.44374013,7.76794926 7.65380446,6.51959176 9.17142857,6.49142857 Z" id="Path" fill="#FF8D8E"></path>
                    <circle id="Oval" fill="#C32717" cx="9.17142857" cy="9.18285714" r="1.66285714"></circle>
                    <path d="M9.17142857,7.57142857 C10.1182024,7.57142857 10.8857143,8.33894043 10.8857143,9.28571429 L10.8857143,9.28571429 C11.0423497,8.59842291 10.7622946,7.88530738 10.1798242,7.48827799 C9.59735379,7.09124861 8.83121763,7.09124861 8.24874725,7.48827799 C7.66627687,7.88530738 7.38622177,8.59842291 7.54285714,9.28571429 L7.54285714,9.28571429 C7.54171361,8.3714283 8.25828541,7.61714219 9.17142857,7.57142857 Z" id="Path" fill="#FF8D8E"></path>
                    <circle id="Oval" fill="#0042C0" opacity="0.3" cx="21.8571429" cy="9.18285714" r="4.37142857"></circle>
                    <path d="M21.8571429,13.3828571 C19.4721935,13.3925422 17.5232532,11.4818164 17.4857143,9.09714286 C17.4857143,9.09714286 17.4857143,9.09714286 17.4857143,9.18285714 C17.6304741,11.49562 19.5484255,13.2972768 21.8657143,13.2972768 C24.1830031,13.2972768 26.1009545,11.49562 26.2457143,9.18285714 C26.2457143,9.18285714 26.2457143,9.18285714 26.2457143,9.09714286 C26.2081264,11.4885376 24.2487565,13.4019847 21.8571429,13.3828571 Z" id="Path" fill="#00E6FF" opacity="0.4"></path>
                    <circle id="Oval" fill="#00B3FF" opacity="0.3" cx="21.8571429" cy="9.18285714" r="3.39428571"></circle>
                    <circle id="Oval" fill="#FFCD00" cx="21.8571429" cy="9.18285714" r="2.77714286"></circle>
                    <path d="M21.8571429,6.49142857 C22.5951197,6.49137163 23.3023828,6.78685824 23.8209801,7.3118978 C24.3395775,7.83693737 24.6263103,8.54779442 24.6171429,9.28571429 L24.6171429,9.28571429 C24.6991311,8.24459199 24.1901046,7.24549261 23.2996623,6.69980935 C22.40922,6.15412609 21.2879228,6.15412609 20.3974805,6.69980935 C19.5070382,7.24549261 18.9980118,8.24459199 19.08,9.28571429 L19.08,9.28571429 C19.0707809,8.54481273 19.3598535,7.83132016 19.8821759,7.30577346 C20.4044984,6.78022676 21.1161986,6.48676899 21.8571429,6.49142857 L21.8571429,6.49142857 Z" id="Path" fill="#FFEC00"></path>
                    <circle id="Oval" fill="#FFA600" cx="21.8571429" cy="9.18285714" r="1.66285714"></circle>
                    <path d="M21.8571429,7.57142857 C22.8039167,7.57142857 23.5714286,8.33894043 23.5714286,9.28571429 L23.5714286,9.28571429 C23.7280639,8.59842291 23.4480088,7.88530738 22.8655385,7.48827799 C22.2830681,7.09124861 21.5169319,7.09124861 20.9344615,7.48827799 C20.3519912,7.88530738 20.0719361,8.59842291 20.2285714,9.28571429 L20.2285714,9.28571429 C20.2274279,8.3714283 20.9439997,7.61714219 21.8571429,7.57142857 Z" id="Path" fill="#FFBC00"></path>
                    <circle id="Oval" fill="#0042C0" opacity="0.3" cx="34.5257143" cy="9.18285714" r="4.37142857"></circle>
                    <path d="M34.5257143,13.3828571 C32.1407649,13.3925422 30.1918246,11.4818164 30.1542857,9.09714286 C30.1542857,9.09714286 30.1542857,9.09714286 30.1542857,9.18285714 C30.2990455,11.49562 32.2169969,13.2972768 34.5342857,13.2972768 C36.8515745,13.2972768 38.7695259,11.49562 38.9142857,9.18285714 C38.9142857,9.18285714 38.9142857,9.18285714 38.9142857,9.09714286 C38.8766978,11.4885376 36.9173279,13.4019847 34.5257143,13.3828571 Z" id="Path" fill="#00E6FF" opacity="0.4"></path>
                    <circle id="Oval" fill="#00B3FF" opacity="0.3" cx="34.5257143" cy="9.18285714" r="3.39428571"></circle>
                    <circle id="Oval" fill="#45D788" cx="34.5257143" cy="9.18285714" r="2.77714286"></circle>
                    <path d="M34.5257143,6.49142857 C35.2636911,6.49137163 35.9709542,6.78685824 36.4895516,7.3118978 C37.0081489,7.83693737 37.2948817,8.54779442 37.2857143,9.28571429 L37.2857143,9.28571429 C37.3677025,8.24459199 36.8586761,7.24549261 35.9682338,6.69980935 C35.0777915,6.15412609 33.9564942,6.15412609 33.066052,6.69980935 C32.1756097,7.24549261 31.6665832,8.24459199 31.7485714,9.28571429 L31.7485714,9.28571429 C31.7393523,8.54481273 32.0284249,7.83132016 32.5507474,7.30577346 C33.0730699,6.78022676 33.78477,6.48676899 34.5257143,6.49142857 L34.5257143,6.49142857 Z" id="Path" fill="#91F6AB"></path>
                    <circle id="Oval" fill="#11AB6B" cx="34.5257143" cy="9.18285714" r="1.66285714"></circle>
                    <path d="M34.5257143,7.57142857 C35.4724881,7.57142857 36.24,8.33894043 36.24,9.28571429 L36.24,9.28571429 C36.3966354,8.59842291 36.1165803,7.88530738 35.5341099,7.48827799 C34.9516395,7.09124861 34.1855033,7.09124861 33.603033,7.48827799 C33.0205626,7.88530738 32.7405075,8.59842291 32.8971429,9.28571429 L32.8971429,9.28571429 C32.8959993,8.3714283 33.6125711,7.61714219 34.5257143,7.57142857 Z" id="Path" fill="#91F6AB"></path>
                    <path d="M83.7257143,41.7028572 L12.5657143,41.7028572 C12.3353843,41.7029032 12.1147279,41.6102479 11.9534804,41.4457755 C11.7922329,41.2813031 11.7039648,41.0588554 11.7083998,40.8285714 C11.7083998,40.3551845 12.0923274,39.9714286 12.5657143,39.9714286 L83.7257143,39.9714286 C83.9559982,39.966822 84.178446,40.0550901 84.3429184,40.2163375 C84.5073908,40.377585 84.6,40.5982414 84.6,40.8285714 C84.6,41.3114261 84.208569,41.7028572 83.7257143,41.7028572 Z" id="Path" fill="#00DA8F"></path>
                    <path d="M95.2114286,41.7028572 L89.9314286,41.7028572 C89.4485739,41.7028572 89.0571428,41.3114261 89.0571428,40.8285714 C89.0571428,40.5982414 89.1497521,40.377585 89.3142245,40.2163375 C89.4786969,40.0550901 89.7011446,39.966822 89.9314286,39.9714286 L95.2114286,39.9714286 C95.6848155,39.9714286 96.0685714,40.3551845 96.0685714,40.8285714 C96.073178,41.0588554 95.9849099,41.2813031 95.8236625,41.4457755 C95.662415,41.6102479 95.4417586,41.7029032 95.2114286,41.7028572 Z" id="Path" fill="#00DA8F"></path>
                    <path d="M103.611429,41.7028571 L99.6342857,41.7028571 C99.151431,41.7028571 98.76,41.3114261 98.76,40.8285714 C98.76,40.5982414 98.8526092,40.377585 99.0170816,40.2163375 C99.181554,40.0550901 99.4040018,39.966822 99.6342857,39.9714286 L103.611429,39.9714286 C103.841713,39.966822 104.06416,40.0550901 104.228633,40.2163375 C104.393105,40.377585 104.485714,40.5982414 104.485714,40.8285714 C104.485714,41.3114261 104.094283,41.7028571 103.611429,41.7028571 Z" id="Path" fill="#00DA8F"></path>
                    <path d="M52.5428571,49.7428572 L12.5657143,49.7428572 C12.3353843,49.7429032 12.1147279,49.6502479 11.9534804,49.4857755 C11.7922329,49.3213031 11.7039648,49.0988554 11.7083998,48.8685714 C11.7083998,48.3951845 12.0923274,48.0114286 12.5657143,48.0114286 L52.5428571,48.0114286 C53.0162441,48.0114286 53.4001717,48.3951845 53.4001717,48.8685714 C53.4046066,49.0988554 53.3163385,49.3213031 53.155091,49.4857755 C52.9938436,49.6502479 52.7731872,49.7429032 52.5428571,49.7428572 Z" id="Path" fill="#00FCFF"></path>
                    <path d="M66.4285714,49.7428572 L54.96,49.7428572 C54.72967,49.7429032 54.5090136,49.6502479 54.3477661,49.4857755 C54.1865187,49.3213031 54.0982505,49.0988554 54.1028571,48.8685714 C54.1028571,48.3951845 54.4866131,48.0114286 54.96,48.0114286 L66.4285714,48.0114286 C66.6588554,48.006822 66.8813031,48.0950901 67.0457755,48.2563375 C67.2102479,48.417585 67.3028572,48.6382414 67.3028572,48.8685714 C67.3028572,49.3514261 66.9114261,49.7428572 66.4285714,49.7428572 L66.4285714,49.7428572 Z" id="Path" fill="#00FCFF"></path>
                    <path d="M66.4285714,54.3714286 L59.2971429,54.3714286 C59.0668128,54.3714746 58.8461564,54.2788194 58.684909,54.1143469 C58.5236615,53.9498745 58.4353934,53.7274268 58.44,53.4971429 C58.44,53.0237559 58.8237559,52.64 59.2971429,52.64 L66.4285714,52.64 C66.6588554,52.6353934 66.8813031,52.7236615 67.0457755,52.884909 C67.2102479,53.0461564 67.3028572,53.2668128 67.3028572,53.4971429 C67.3028572,53.9799975 66.9114261,54.3714286 66.4285714,54.3714286 L66.4285714,54.3714286 Z" id="Path" fill="#00FCFF"></path>
                    <path d="M55.8514286,54.3714286 L55.0285714,54.3714286 C54.5457168,54.3714286 54.1542857,53.9799975 54.1542857,53.4971429 C54.1542396,53.2668128 54.2468949,53.0461564 54.4113673,52.884909 C54.5758398,52.7236615 54.7982875,52.6353934 55.0285714,52.64 L55.8514286,52.64 C56.3248155,52.64 56.7085714,53.0237559 56.7085714,53.4971429 C56.713178,53.7274268 56.6249099,53.9498745 56.4636625,54.1143469 C56.302415,54.2788194 56.0817586,54.3714746 55.8514286,54.3714286 Z" id="Path" fill="#00FCFF"></path>
                    <path d="M50.8628571,54.3714286 L44.5714286,54.3714286 C44.3410985,54.3714746 44.1204422,54.2788194 43.9591947,54.1143469 C43.7979472,53.9498745 43.7096791,53.7274268 43.7142857,53.4971429 C43.7142857,53.0237559 44.0980416,52.64 44.5714286,52.64 L50.8457143,52.64 C51.0759982,52.6353934 51.298446,52.7236615 51.4629184,52.884909 C51.6273908,53.0461564 51.72,53.2668128 51.72,53.4971429 C51.7200916,53.9733813 51.339004,54.3620906 50.8628571,54.3714286 L50.8628571,54.3714286 Z" id="Path" fill="#00FCFF"></path>
                    <path d="M39.6,54.3714286 L33.3428571,54.3714286 C32.8600025,54.3714286 32.4685714,53.9799975 32.4685714,53.4971429 C32.4685714,53.2668128 32.5611806,53.0461564 32.7256531,52.884909 C32.8901255,52.7236615 33.1125732,52.6353934 33.3428571,52.64 L39.6,52.64 C39.830284,52.6353934 40.0527317,52.7236615 40.2172041,52.884909 C40.3816765,53.0461564 40.4742857,53.2668128 40.4742857,53.4971429 C40.4742857,53.9799975 40.0828547,54.3714286 39.6,54.3714286 Z" id="Path" fill="#00FCFF"></path>
                    <path d="M28.3542857,54.3714286 L22.08,54.3714286 C21.5971453,54.3714286 21.2057143,53.9799975 21.2057143,53.4971429 C21.2057143,53.2668128 21.2983235,53.0461564 21.4627959,52.884909 C21.6272683,52.7236615 21.849716,52.6353934 22.08,52.64 L28.3542857,52.64 C28.8276726,52.64 29.2114286,53.0237559 29.2114286,53.4971429 C29.2160352,53.7274268 29.1277671,53.9498745 28.9665196,54.1143469 C28.8052721,54.2788194 28.5846157,54.3714746 28.3542857,54.3714286 Z" id="Path" fill="#00FCFF"></path>
                    <path d="M87.9942857,59.9942857 L22.08,59.9942857 C21.5971453,59.9942857 21.2057143,59.6028547 21.2057143,59.12 C21.2057143,58.88967 21.2983235,58.6690136 21.4627959,58.5077661 C21.6272683,58.3465187 21.849716,58.2582505 22.08,58.2628571 L87.9942857,58.2628571 C88.4676726,58.2628571 88.8516002,58.6466131 88.8516002,59.12 C88.8560352,59.350284 88.7677671,59.5727317 88.6065196,59.7372041 C88.4452721,59.9016765 88.2246157,59.9943318 87.9942857,59.9942857 Z" id="Path" fill="#FF4F92"></path>
                    <path d="M14.8285714,54.3714286 L12.5657143,54.3714286 C12.3353843,54.3714746 12.1147279,54.2788194 11.9534804,54.1143469 C11.7922329,53.9498745 11.7039648,53.7274268 11.7085714,53.4971429 C11.7085714,53.0237559 12.0923274,52.64 12.5657143,52.64 L14.8285714,52.64 C15.0588554,52.6353934 15.2813031,52.7236615 15.4457755,52.884909 C15.6102479,53.0461564 15.7029032,53.2668128 15.7028572,53.4971429 C15.7028572,53.9799975 15.3114261,54.3714286 14.8285714,54.3714286 Z" id="Path" fill="#00FCFF"></path>
                    <path d="M14.8285714,59.9942857 L12.5657143,59.9942857 C12.3353843,59.9943318 12.1147279,59.9016765 11.9534804,59.7372041 C11.7922329,59.5727317 11.7039648,59.350284 11.7085714,59.12 C11.7085714,58.6466131 12.0923274,58.2628571 12.5657143,58.2628571 L14.8285714,58.2628571 C15.0588554,58.2582505 15.2813031,58.3465187 15.4457755,58.5077661 C15.6102479,58.6690136 15.7029032,58.88967 15.7028572,59.12 C15.7028572,59.351875 15.6107452,59.574253 15.4467848,59.7382134 C15.2828244,59.9021737 15.0604464,59.9942857 14.8285714,59.9942857 L14.8285714,59.9942857 Z" id="Path" fill="#00FCFF"></path>
                    <path d="M14.8285714,65.6171429 L12.5657143,65.6171429 C12.1574395,65.5350806 11.8637122,65.1764402 11.8637122,64.76 C11.8637122,64.3435598 12.1574395,63.9849194 12.5657143,63.9028571 L14.8285714,63.9028571 C15.1756704,63.8330911 15.5305809,63.9795444 15.7274722,64.2737872 C15.9243636,64.56803 15.9243636,64.95197 15.7274722,65.2462128 C15.5305809,65.5404556 15.1756704,65.6869089 14.8285714,65.6171429 Z" id="Path" fill="#00FCFF"></path>
                    <path d="M102.051429,59.9942857 L93.8742857,59.9942857 C93.391431,59.9942857 93,59.6028547 93,59.12 C93,58.88967 93.0926092,58.6690136 93.2570816,58.5077661 C93.421554,58.3465187 93.6440018,58.2582505 93.8742857,58.2628571 L102.051429,58.2628571 C102.281713,58.2582505 102.50416,58.3465187 102.668633,58.5077661 C102.833105,58.6690136 102.925714,58.88967 102.925714,59.12 C102.925714,59.6028547 102.534283,59.9942857 102.051429,59.9942857 L102.051429,59.9942857 Z" id="Path" fill="#FF4F92"></path>
                    <path d="M48.6857143,65.6171429 L21.8571429,65.6171429 C21.5100438,65.6869089 21.1551334,65.5404556 20.9582421,65.2462128 C20.7613507,64.95197 20.7613507,64.56803 20.9582421,64.2737872 C21.1551334,63.9795444 21.5100438,63.8330911 21.8571429,63.9028571 L48.6857143,63.9028571 C49.0328133,63.8330911 49.3877238,63.9795444 49.5846151,64.2737872 C49.7815064,64.56803 49.7815064,64.95197 49.5846151,65.2462128 C49.3877238,65.5404556 49.0328133,65.6869089 48.6857143,65.6171429 L48.6857143,65.6171429 Z" id="Path" fill="#FF4F92"></path>
                    <path d="M89.9314286,72.9714286 L59.2971429,72.9714286 C58.8237559,72.9714286 58.4398283,72.5876726 58.4398283,72.1142857 C58.4353934,71.8840018 58.5236615,71.661554 58.684909,71.4970816 C58.8461564,71.3326092 59.0668128,71.2399539 59.2971429,71.24 L89.9314286,71.24 C90.1617586,71.2399539 90.382415,71.3326092 90.5436625,71.4970816 C90.7049099,71.661554 90.793178,71.8840018 90.7887431,72.1142857 C90.7887431,72.5876726 90.4048155,72.9714286 89.9314286,72.9714286 Z" id="Path" fill="#FFD600"></path>
                    <path d="M89.9314286,69.08 L81.1028571,69.08 C80.6200025,69.08 80.2285714,68.688569 80.2285714,68.2057143 C80.2285714,67.9753843 80.3211806,67.7547279 80.4856531,67.5934804 C80.6501255,67.4322329 80.8725732,67.3439648 81.1028571,67.3485714 L89.9314286,67.3485714 C90.4048155,67.3485714 90.7885714,67.7323274 90.7885714,68.2057143 C90.793178,68.4359982 90.7049099,68.658446 90.5436625,68.8229184 C90.382415,68.9873908 90.1617586,69.0800461 89.9314286,69.08 Z" id="Path" fill="#FFD600"></path>
                    <path d="M44.5714286,33.8685714 L12.5657143,33.8685714 C12.0923274,33.8685714 11.7083998,33.4848155 11.7083998,33.0114286 C11.7039648,32.7811446 11.7922329,32.5586969 11.9534804,32.3942245 C12.1147279,32.2297521 12.3353843,32.1370968 12.5657143,32.1371428 L44.5714286,32.1371428 C45.0542832,32.1371428 45.4457143,32.5285739 45.4457143,33.0114286 C45.4457143,33.2417586 45.3531051,33.462415 45.1886327,33.6236625 C45.0241602,33.7849099 44.8017125,33.873178 44.5714286,33.8685714 Z" id="Path" fill="#FF4F92"></path>
                    <path d="M65.3657143,88.7085714 L12.5657143,88.7085714 C12.0923274,88.7085714 11.7083998,88.3248155 11.7083998,87.8514286 C11.7039648,87.6211446 11.7922329,87.3986969 11.9534804,87.2342245 C12.1147279,87.0697521 12.3353843,86.9770968 12.5657143,86.9771428 L65.3657143,86.9771428 C65.848569,86.9771428 66.24,87.3685739 66.24,87.8514286 C66.24,88.0817586 66.1473908,88.302415 65.9829184,88.4636625 C65.818446,88.6249099 65.5959982,88.713178 65.3657143,88.7085714 Z" id="Path" fill="#FFD600"></path>
                    <path d="M76.6457143,78.6285714 L62.2285714,78.6285714 C61.7457168,78.6285714 61.3542857,78.2371404 61.3542857,77.7542857 C61.3542857,77.5239557 61.4468949,77.3032993 61.6113673,77.1420518 C61.7758398,76.9808044 61.9982875,76.8925363 62.2285714,76.8971429 L76.6457143,76.8971429 C76.8759982,76.8925363 77.098446,76.9808044 77.2629184,77.1420518 C77.4273908,77.3032993 77.52,77.5239557 77.52,77.7542857 C77.52,78.2371404 77.128569,78.6285714 76.6457143,78.6285714 L76.6457143,78.6285714 Z" id="Path" fill="#00DA8F"></path>
                    <path d="M103.611429,78.6285714 L83.7257143,78.6285714 C83.2428596,78.6285714 82.8514286,78.2371404 82.8514286,77.7542857 C82.8514286,77.5239557 82.9440378,77.3032993 83.1085102,77.1420518 C83.2729826,76.9808044 83.4954303,76.8925363 83.7257143,76.8971429 L103.611429,76.8971429 C103.841713,76.8925363 104.06416,76.9808044 104.228633,77.1420518 C104.393105,77.3032993 104.485714,77.5239557 104.485714,77.7542857 C104.485714,78.2371404 104.094283,78.6285714 103.611429,78.6285714 Z" id="Path" fill="#00DA8F"></path>
                    <path d="M103.611429,86.6685714 L83.7257143,86.6685714 C83.4954303,86.673178 83.2729826,86.5849099 83.1085102,86.4236625 C82.9440378,86.262415 82.8514286,86.0417586 82.8514286,85.8114286 C82.8514286,85.3285739 83.2428596,84.9371429 83.7257143,84.9371429 L103.611429,84.9371429 C104.094283,84.9371429 104.485714,85.3285739 104.485714,85.8114286 C104.485714,86.0417586 104.393105,86.262415 104.228633,86.4236625 C104.06416,86.5849099 103.841713,86.673178 103.611429,86.6685714 Z" id="Path" fill="#00DA8F"></path>
                    <path d="M19.08,94.2628571 L12.5657143,94.2628571 C12.0923274,94.2628571 11.7085714,93.8791012 11.7085714,93.4057143 C11.7039648,93.1754303 11.7922329,92.9529826 11.9534804,92.7885102 C12.1147279,92.6240378 12.3353843,92.5313825 12.5657143,92.5314286 L19.08,92.5314286 C19.31033,92.5313825 19.5309864,92.6240378 19.6922339,92.7885102 C19.8534813,92.9529826 19.9417495,93.1754303 19.9371429,93.4057143 C19.9371429,93.8791012 19.5533869,94.2628571 19.08,94.2628571 Z" id="Path" fill="#00DA8F"></path>
                    <path d="M72,94.2628571 L22.9714286,94.2628571 C22.7411446,94.2674637 22.5186969,94.1791956 22.3542245,94.0179482 C22.1897521,93.8567007 22.0971428,93.6360443 22.0971428,93.4057143 C22.0971428,92.9228596 22.4885739,92.5314286 22.9714286,92.5314286 L72,92.5314286 C72.4828547,92.5314286 72.8742857,92.9228596 72.8742857,93.4057143 C72.8742857,93.6360443 72.7816765,93.8567007 72.6172041,94.0179482 C72.4527317,94.1791956 72.230284,94.2674637 72,94.2628571 Z" id="Path" fill="#00DA8F"></path>
                </g>
                <g id="Group" opacity="0.8" transform="translate(1.714286, 0.000000)">
                    <rect id="Rectangle" fill="#FFFFFF" fill-rule="nonzero" opacity="0.2" x="0.0514285714" y="1.95428571" width="235.765714" height="153.051429" rx="8.69142857"></rect>
                    <path d="M230.022857,154.285714 L5.84571429,154.285714 C4.29112682,154.299575 2.79617974,153.688141 1.69687671,152.588838 C0.597573674,151.489535 -0.0138604496,149.994587 -0.000230613306,148.44 L-0.000230613306,149.142857 C-0.000230613306,152.342953 2.59419008,154.937143 5.79428571,154.937143 L230.022857,154.937143 C233.222953,154.937143 235.818774,152.342953 235.818774,149.142857 L235.818774,148.371429 C235.854166,149.930222 235.259523,151.437793 234.168336,152.551579 C233.077149,153.665365 231.582082,154.290781 230.022857,154.285714 L230.022857,154.285714 Z" id="Path" fill="#FFFFFF" fill-rule="nonzero" opacity="0.53"></path>
                    <path d="M229.114286,0.531428571 L6.75428571,0.531428571 C4.96768351,0.517720222 3.24954371,1.21785574 1.98136914,2.47637416 C0.713194563,3.73489258 6.09036631e-15,5.44763092 6.09036631e-15,7.23428571 L6.09036631e-15,8.65714286 C6.09036631e-15,4.95525708 3.00097136,1.95428571 6.70285714,1.95428571 L229.114286,1.95428571 C232.816171,1.95428571 235.817143,4.95525708 235.817143,8.65714286 L235.817143,7.23428571 C235.817143,5.45657747 235.110951,3.75167953 233.853921,2.49464998 C232.596892,1.23762042 230.891994,0.531428571 229.114286,0.531428571 L229.114286,0.531428571 Z" id="Path" fill="#00B3FF" fill-rule="nonzero" opacity="0.3"></path>
                    <path d="M229.114286,1.95408814 L6.75428571,1.95408814 C4.96768351,1.94057736 3.24954371,2.64071288 1.98136914,3.8992313 C0.713194563,5.15774973 6.09036631e-15,6.87048806 6.09036631e-15,8.65714286 L6.09036631e-15,26.64 L235.817143,26.64 L235.817143,8.65714286 C235.817143,4.95525708 232.816171,1.95408814 229.114286,1.95408814 L229.114286,1.95408814 Z" id="Path" fill="#00B3FF" fill-rule="nonzero" opacity="0.3"></path>
                    <path d="M229.114286,1.95428571 L6.75428571,1.95428571 C4.96768351,1.94057736 3.24954371,2.64071288 1.98136914,3.8992313 C0.713194563,5.15774973 6.09036631e-15,6.87048806 6.09036631e-15,8.65714286 L6.09036631e-15,8.89714286 C6.09036631e-15,5.19525708 3.00097136,2.19428571 6.70285714,2.19428571 L229.114286,2.19428571 C232.816171,2.19428571 235.817143,5.19525708 235.817143,8.89714286 L235.817143,8.65714286 C235.817143,6.87943461 235.110951,5.17453667 233.853921,3.91750712 C232.596892,2.66047756 230.891994,1.95428571 229.114286,1.95428571 L229.114286,1.95428571 Z" id="Path" fill="#00E6FF" fill-rule="nonzero" opacity="0.4"></path>
                    <rect id="Rectangle" fill="#00E6FF" fill-rule="nonzero" opacity="0.4" x="0.0514285714" y="25.6457143" width="235.765714" height="1"></rect>
                    <rect id="Rectangle" fill="url(#linearGradient-2)" fill-rule="nonzero" opacity="0.81" style="mix-blend-mode: multiply;" x="9.6" y="34.0628571" width="217.2" height="112.868571" rx="7.16571429"></rect>
                    <circle id="Oval" fill="#0042C0" fill-rule="nonzero" opacity="0.3" cx="13.2857143" cy="14.2971429" r="6.66857143"></circle>
                    <path d="M13.2857143,20.7257143 C9.65579401,20.7169704 6.69959527,17.8064861 6.63428571,14.1771429 C6.62596125,14.2167098 6.62596125,14.257576 6.63428571,14.2971429 C6.63428571,17.9800932 9.61990684,20.9657143 13.3028571,20.9657143 C16.9858074,20.9657143 19.9714286,17.9800932 19.9714286,14.2971429 C19.979753,14.257576 19.979753,14.2167098 19.9714286,14.1771429 C19.905882,17.8198265 16.928974,20.7356697 13.2857143,20.7257143 Z" id="Path" fill="#00E6FF" fill-rule="nonzero" opacity="0.4"></path>
                    <circle id="Oval" fill="#00B3FF" fill-rule="nonzero" opacity="0.3" cx="13.2857143" cy="14.2971429" r="5.17714286"></circle>
                    <circle id="Oval" fill="#FF3D40" fill-rule="nonzero" cx="13.2857143" cy="14.2971429" r="4.23428571"></circle>
                    <path d="M13.2857143,10.1828571 C15.5976272,10.1920469 17.4747953,12.0539534 17.5028571,14.3657143 C17.5028571,14.3657143 17.5028571,14.3657143 17.5028571,14.3657143 C17.5028571,12.0271829 15.6071029,10.1314286 13.2685714,10.1314286 C10.93004,10.1314286 9.03428571,12.0271829 9.03428571,14.3657143 C9.03428571,14.3657143 9.03428571,14.3657143 9.03428571,14.3657143 C9.06250833,12.0405972 10.9604457,10.1732717 13.2857143,10.1828571 L13.2857143,10.1828571 Z" id="Path" fill="#FF8D8E" fill-rule="nonzero"></path>
                    <circle id="Oval" fill="#C32717" fill-rule="nonzero" cx="13.2857143" cy="14.2971429" r="2.55428571"></circle>
                    <path d="M13.2857143,11.88 C14.6670987,11.8797162 15.7948561,12.9846136 15.8228571,14.3657143 C15.8228571,14.3657143 15.8228571,14.3657143 15.8228571,14.3657143 C15.8228571,12.9455535 14.6715894,11.7942857 13.2514286,11.7942857 C11.8312678,11.7942857 10.68,12.9455535 10.68,14.3657143 C10.68,14.3657143 10.68,14.3657143 10.68,14.3657143 C10.6934544,13.6897344 10.9761627,13.0470848 11.4653794,12.5803978 C11.9545962,12.1137107 12.6098511,11.8615928 13.2857143,11.88 Z" id="Path" fill="#FF8D8E" fill-rule="nonzero"></path>
                    <circle id="Oval" fill="#0042C0" fill-rule="nonzero" opacity="0.3" cx="32.6228571" cy="14.2971429" r="6.66857143"></circle>
                    <path d="M32.5714286,20.7257397 C28.9348367,20.7263031 25.9682971,17.8131459 25.9028571,14.1771429 C25.9028571,14.1771429 25.9028571,14.2628571 25.9028571,14.2971429 C26.0831114,17.8534546 29.0191231,20.6444214 32.58,20.6444214 C36.1408769,20.6444214 39.0768886,17.8534546 39.2571429,14.2971429 C39.2571429,14.2971429 39.2571429,14.2114286 39.2571429,14.1771429 C39.1915963,17.8198265 36.2146883,20.7356697 32.5714286,20.7257397 Z" id="Path" fill="#00E6FF" fill-rule="nonzero" opacity="0.4"></path>
                    <circle id="Oval" fill="#00B3FF" fill-rule="nonzero" opacity="0.3" cx="32.6228571" cy="14.2971429" r="5.17714286"></circle>
                    <circle id="Oval" fill="#FFCD00" fill-rule="nonzero" cx="32.6228571" cy="14.2971429" r="4.23428571"></circle>
                    <path d="M32.5714286,10.1828571 C34.8833415,10.1920469 36.7605096,12.0539534 36.7885714,14.3657143 L36.7885714,14.3657143 C36.6464987,12.1362582 34.7968355,10.4007133 32.5628571,10.4007133 C30.3288788,10.4007133 28.4792155,12.1362582 28.3371429,14.3657143 L28.3371429,14.3657143 C28.3744611,12.0511937 30.2566248,10.1918903 32.5714286,10.1828571 L32.5714286,10.1828571 Z" id="Path" fill="#FFEC00" fill-rule="nonzero"></path>
                    <circle id="Oval" fill="#FFA600" fill-rule="nonzero" cx="32.6228571" cy="14.2971429" r="2.55428571"></circle>
                    <path d="M32.5714286,11.88 C33.9491087,11.8887506 35.0716138,12.9885021 35.1085714,14.3657143 L35.1085714,14.3657143 C35.1085714,12.9455535 33.9573036,11.7942857 32.5371429,11.7942857 C31.1169821,11.7942857 29.9657143,12.9455535 29.9657143,14.3657143 L29.9657143,14.3657143 C30.0031258,12.9616488 31.1671596,11.8512219 32.5714286,11.88 L32.5714286,11.88 Z" id="Path" fill="#FFBC00" fill-rule="nonzero"></path>
                    <circle id="Oval" fill="#0042C0" fill-rule="nonzero" opacity="0.3" cx="51.9428571" cy="14.2971429" r="6.66857143"></circle>
                    <path d="M51.9428571,20.7257143 C48.3129369,20.7169704 45.3567381,17.8064861 45.2914286,14.1771429 C45.2914286,14.1771429 45.2914286,14.2628571 45.2914286,14.2971429 C45.2914286,17.9800932 48.2770497,20.9657143 51.96,20.9657143 C55.6429503,20.9657143 58.6285714,17.9800932 58.6285714,14.2971429 L58.6285714,14.1771429 C58.5630248,17.8198265 55.5861168,20.7356697 51.9428571,20.7257143 L51.9428571,20.7257143 Z" id="Path" fill="#00E6FF" fill-rule="nonzero" opacity="0.4"></path>
                    <circle id="Oval" fill="#00B3FF" fill-rule="nonzero" opacity="0.3" cx="51.9428571" cy="14.2971429" r="5.17714286"></circle>
                    <circle id="Oval" fill="#45D788" fill-rule="nonzero" cx="51.9428571" cy="14.2971429" r="4.23428571"></circle>
                    <path d="M51.9428571,10.1828571 C54.2576609,10.1918903 56.1398247,12.0511937 56.1771429,14.3657143 L56.1771429,14.3657143 C56.0350702,12.1362582 54.1854069,10.4007133 51.9514286,10.4007133 C49.7174502,10.4007133 47.867787,12.1362582 47.7257143,14.3657143 L47.7257143,14.3657143 C47.7537762,12.0539534 49.6309442,10.1920469 51.9428571,10.1828571 L51.9428571,10.1828571 Z" id="Path" fill="#91F6AB" fill-rule="nonzero"></path>
                    <circle id="Oval" fill="#11AB6B" fill-rule="nonzero" cx="51.9428571" cy="14.2971429" r="2.55428571"></circle>
                    <path d="M51.9428571,11.88 C53.3271995,11.8795011 54.4599794,12.9818707 54.4971429,14.3657143 L54.4971429,14.3657143 C54.4971429,12.9455535 53.3458751,11.7942857 51.9257143,11.7942857 C50.5055535,11.7942857 49.3542857,12.9455535 49.3542857,14.3657143 L49.3542857,14.3657143 C49.367788,13.692777 49.6481317,13.0527819 50.1336136,12.5865907 C50.6190955,12.1203995 51.2699254,11.8662212 51.9428571,11.88 Z" id="Path" fill="#91F6AB" fill-rule="nonzero"></path>
                    <polyline id="Path" stroke="#00DA8F" stroke-width="3.42857143" stroke-linecap="round" stroke-linejoin="round" points="21.0514286 40.68 15.8742857 45.8742857 21.0514286 51.0514286"></polyline>
                    <polyline id="Path" stroke="#00DA8F" stroke-width="3.42857143" stroke-linecap="round" stroke-linejoin="round" points="34.0971429 40.68 39.2914286 45.8742857 34.0971429 51.0514286"></polyline>
                    <line x1="25.3885714" y1="51.9428571" x2="29.5028571" y2="40.68" id="Path" stroke="#00DA8F" stroke-width="3.42857143" stroke-linecap="round" stroke-linejoin="round"></line>
                    <circle id="Oval" fill="#00DA8F" fill-rule="nonzero" cx="44.7942857" cy="52.0457143" r="1.45714286"></circle>
                    <circle id="Oval" fill="#00DA8F" fill-rule="nonzero" cx="50.8628571" cy="52.0457143" r="1.45714286"></circle>
                    <circle id="Oval" fill="#00DA8F" fill-rule="nonzero" cx="56.9142857" cy="52.0457143" r="1.45714286"></circle>
                    <line x1="18.4628571" y1="62.5885714" x2="174.462857" y2="62.5885714" id="Path" stroke="#00DA8F" stroke-width="3.42857143" stroke-linecap="round" stroke-linejoin="round"></line>
                    <line x1="183.925714" y1="62.5885714" x2="195.942857" y2="62.5885714" id="Path" stroke="#00DA8F" stroke-width="3.42857143" stroke-linecap="round" stroke-linejoin="round"></line>
                    <line x1="202.697143" y1="62.5885714" x2="218.04" y2="62.5885714" id="Path" stroke="#00DA8F" stroke-width="3.42857143" stroke-linecap="round" stroke-linejoin="round"></line>
                    <line x1="18.4628571" y1="74.8628571" x2="116.057143" y2="74.8628571" id="Path" stroke="#00FCFF" stroke-width="3.42857143" stroke-linecap="round" stroke-linejoin="round"></line>
                    <line x1="130.577143" y1="74.8628571" x2="148.062857" y2="74.8628571" id="Path" stroke="#00FCFF" stroke-width="3.42857143" stroke-linecap="round" stroke-linejoin="round"></line>
                    <line x1="148.062857" y1="81.9257143" x2="100.577143" y2="81.9257143" id="Path" stroke="#00FCFF" stroke-width="3.42857143" stroke-linecap="round" stroke-linejoin="round"></line>
                    <line x1="94.0628571" y1="81.9257143" x2="84.48" y2="81.9257143" id="Path" stroke="#00FCFF" stroke-width="3.42857143" stroke-linecap="round" stroke-linejoin="round"></line>
                    <line x1="76.8857143" y1="81.9257143" x2="67.32" y2="81.9257143" id="Path" stroke="#00FCFF" stroke-width="3.42857143" stroke-linecap="round" stroke-linejoin="round"></line>
                    <line x1="59.7085714" y1="81.9257143" x2="50.1428571" y2="81.9257143" id="Path" stroke="#00FCFF" stroke-width="3.42857143" stroke-linecap="round" stroke-linejoin="round"></line>
                    <line x1="42.5485714" y1="81.9257143" x2="32.9657143" y2="81.9257143" id="Path" stroke="#00FCFF" stroke-width="3.42857143" stroke-linecap="round" stroke-linejoin="round"></line>
                    <line x1="180.96" y1="90.4971429" x2="32.9657143" y2="90.4971429" id="Path" stroke="#FF4F92" stroke-width="3.42857143" stroke-linecap="round" stroke-linejoin="round"></line>
                    <line x1="21.9085714" y1="81.9257143" x2="18.4628571" y2="81.9257143" id="Path" stroke="#00FCFF" stroke-width="3.42857143" stroke-linecap="round" stroke-linejoin="round"></line>
                    <line x1="21.9085714" y1="90.4971429" x2="18.4628571" y2="90.4971429" id="Path" stroke="#00FCFF" stroke-width="3.42857143" stroke-linecap="round" stroke-linejoin="round"></line>
                    <line x1="21.9085714" y1="99.0857143" x2="18.4628571" y2="99.0857143" id="Path" stroke="#00FCFF" stroke-width="3.42857143" stroke-linecap="round" stroke-linejoin="round"></line>
                    <line x1="21.9085714" y1="107.674286" x2="18.4628571" y2="107.674286" id="Path" stroke="#00FCFF" stroke-width="3.42857143" stroke-linecap="round" stroke-linejoin="round"></line>
                    <line x1="189.925714" y1="90.4971429" x2="210.36" y2="90.4971429" id="Path" stroke="#FF4F92" stroke-width="3.42857143" stroke-linecap="round" stroke-linejoin="round"></line>
                    <line x1="32.6228571" y1="99.0857143" x2="73.56" y2="99.0857143" id="Path" stroke="#FF4F92" stroke-width="3.42857143" stroke-linecap="round" stroke-linejoin="round"></line>
                    <line x1="32.6228571" y1="107.88" x2="73.56" y2="107.88" id="Path" stroke="#FF4F92" stroke-width="3.42857143" stroke-linecap="round" stroke-linejoin="round"></line>
                    <line x1="32.6228571" y1="116.674286" x2="73.56" y2="116.674286" id="Path" stroke="#FF4F92" stroke-width="3.42857143" stroke-linecap="round" stroke-linejoin="round"></line>
                    <line x1="32.6228571" y1="125.468571" x2="73.56" y2="125.468571" id="Path" stroke="#FF4F92" stroke-width="3.42857143" stroke-linecap="round" stroke-linejoin="round"></line>
                    <line x1="100.577143" y1="125.468571" x2="183.925714" y2="125.468571" id="Path" stroke="#FFD600" stroke-width="3.42857143" stroke-linecap="round" stroke-linejoin="round"></line>
                    <line x1="149.982857" y1="116.674286" x2="183.925714" y2="116.674286" id="Path" stroke="#FFD600" stroke-width="3.42857143" stroke-linecap="round" stroke-linejoin="round"></line>
                    <line x1="170.451429" y1="107.674286" x2="183.925714" y2="107.674286" id="Path" stroke="#FFD600" stroke-width="3.42857143" stroke-linecap="round" stroke-linejoin="round"></line>
                </g>
                <g id="Group-5" transform="translate(249.617143, 82.701654)" fill-rule="nonzero">
                    <rect id="Rectangle" fill="#FFFFFF" opacity="0.2" x="0.0685714286" y="0.891428571" width="109.457143" height="170.365714" rx="8.88"></rect>
                    <path d="M104.091429,170.622857 L5.52,170.622857 C4.07419125,170.622857 2.68759906,170.048512 1.66525789,169.026171 C0.642916718,168.00383 0.0685714286,166.617237 0.0685714286,165.171429 L0.0685714286,165.805714 C0.0685714286,167.251523 0.642916718,168.638115 1.66525789,169.660456 C2.68759906,170.682798 4.07419125,171.257143 5.52,171.257143 L104.091429,171.257143 C107.102169,171.257143 109.542857,168.816455 109.542857,165.805714 L109.542857,165.171429 C109.542857,168.182169 107.102169,170.622857 104.091429,170.622857 L104.091429,170.622857 Z" id="Path" fill="#FFFFFF" opacity="0.28"></path>
                    <path d="M105.342857,-2.15827356e-13 L4.2,-2.15827356e-13 C1.88708229,-2.15827356e-13 0.00944048035,1.8699587 -8.68358017e-13,4.18285714 L-8.68358017e-13,5.07428571 C0.00944048035,2.76138727 1.88708229,0.891409305 4.2,0.891428571 L105.342857,0.891428571 C107.655775,0.891409305 109.533417,2.76138727 109.542857,5.07428571 L109.542857,4.18285714 C109.533417,1.8699587 107.655775,-2.15827356e-13 105.342857,-2.15827356e-13 L105.342857,-2.15827356e-13 Z" id="Path" fill="#00B3FF" opacity="0.3"></path>
                    <path d="M105.342857,0.891428571 L4.2,0.891428571 C1.88708229,0.891428571 0.00944048035,2.76138727 9.82792795e-13,5.07428571 L9.82792795e-13,16.32 L109.474286,16.32 L109.474286,5.07428571 C109.465258,2.78788177 107.628974,0.928740083 105.342857,0.891428571 L105.342857,0.891428571 Z" id="Path" fill="#00B3FF" opacity="0.3"></path>
                    <path d="M105.342857,0.891428571 L4.2,0.891428571 C1.88708229,0.891428571 0.00944048035,2.76138727 -8.68358017e-13,5.07428571 L-8.68358017e-13,5.22857143 C-8.68358017e-13,2.90897548 1.88040405,1.02857143 4.2,1.02857143 L105.342857,1.02857143 C107.662453,1.02857143 109.542857,2.90897548 109.542857,5.22857143 L109.542857,5.07428571 C109.533417,2.76138727 107.655775,0.891428571 105.342857,0.891428571 L105.342857,0.891428571 Z" id="Path" fill="#00E6FF" opacity="0.4"></path>
                    <rect id="Rectangle" fill="#00E6FF" opacity="0.4" x="0.0685714286" y="15.7028571" width="109.457143" height="1"></rect>
                    <rect id="Rectangle" fill="url(#linearGradient-3)" opacity="0.600000024" style="mix-blend-mode: multiply;" x="6.03428571" y="20.9657143" width="97.8685714" height="145.251429" rx="7.16571429"></rect>
                    <circle id="Oval" fill="#0042C0" opacity="0.3" cx="8.34857143" cy="8.60571429" r="4.16571429"></circle>
                    <path d="M8.34857143,12.6171429 C6.07063891,12.6267307 4.21107605,10.7977779 4.18285714,8.52 C4.18285714,8.52 4.18285714,8.52 4.18285714,8.52 C4.32402327,10.7216949 6.15092699,12.4352144 8.35714286,12.4352144 C10.5633587,12.4352144 12.3902624,10.7216949 12.5314286,8.52 C12.5314286,8.52 12.5314286,8.52 12.5314286,8.52 C12.5031856,10.804506 10.6331725,12.6361991 8.34857143,12.6171429 Z" id="Path" fill="#00E6FF" opacity="0.4"></path>
                    <circle id="Oval" fill="#00B3FF" opacity="0.3" cx="8.34857143" cy="8.60571429" r="3.24"></circle>
                    <circle id="Oval" fill="#FF3D40" cx="8.34857143" cy="8.60571429" r="2.64"></circle>
                    <path d="M8.34857143,6.03428571 C9.77617541,6.06165942 10.926912,7.21239602 10.9542857,8.64 L10.9542857,8.64 C10.8431452,7.25966155 9.69051985,6.19611181 8.30571429,6.19611181 C6.92090872,6.19611181 5.76828338,7.25966155 5.65714286,8.64 L5.65714286,8.64 C5.66614162,7.93678994 5.95534586,7.266235 6.46061171,6.77706041 C6.96587757,6.28788582 7.64543837,6.02052812 8.34857143,6.03428571 L8.34857143,6.03428571 Z" id="Path" fill="#FF8D8E"></path>
                    <circle id="Oval" fill="#C32717" cx="8.34857143" cy="8.60571429" r="1.59428571"></circle>
                    <path d="M8.34857143,7.09714286 C9.20638777,7.09694014 9.90706613,7.78238636 9.92571429,8.64 C9.92571429,7.75950031 9.21192826,7.04571429 8.33142857,7.04571429 C7.45092888,7.04571429 6.73714286,7.75950031 6.73714286,8.64 L6.73714286,8.64 C6.74613781,8.22168326 6.92099081,7.82408492 7.22321418,7.53472211 C7.52543756,7.24535931 7.93025899,7.08795022 8.34857143,7.09714286 L8.34857143,7.09714286 Z" id="Path" fill="#FF8D8E"></path>
                    <circle id="Oval" fill="#0042C0" opacity="0.3" cx="20.4342857" cy="8.60571429" r="4.16571429"></circle>
                    <path d="M20.4342857,12.6171429 C18.1563532,12.6267307 16.2967903,10.7977779 16.2685714,8.52 C16.2685714,8.52 16.2685714,8.52 16.2685714,8.52 C16.4097376,10.7216949 18.2366413,12.4352144 20.4428571,12.4352144 C22.649073,12.4352144 24.4759767,10.7216949 24.6171429,8.52 C24.6171429,8.52 24.6171429,8.52 24.6171429,8.52 C24.5888998,10.804506 22.7188868,12.6361991 20.4342857,12.6171429 Z" id="Path" fill="#00E6FF" opacity="0.4"></path>
                    <circle id="Oval" fill="#00B3FF" opacity="0.3" cx="20.4342857" cy="8.60571429" r="3.24"></circle>
                    <circle id="Oval" fill="#FFCD00" cx="20.4342857" cy="8.60571429" r="2.64"></circle>
                    <path d="M20.4342857,6.03428571 C21.8761813,6.03425492 23.0477187,7.19813518 23.0571429,8.64 L23.0571429,8.64 C22.9460023,7.25966155 21.793377,6.19611181 20.4085714,6.19611181 C19.0237659,6.19611181 17.8711405,7.25966155 17.76,8.64 L17.76,8.64 C17.7690343,7.9398096 18.0558786,7.27189295 18.5574174,6.78321409 C19.0589562,6.29453524 19.7340968,6.02513329 20.4342857,6.03428571 L20.4342857,6.03428571 Z" id="Path" fill="#FFEC00"></path>
                    <circle id="Oval" fill="#FFA600" cx="20.4342857" cy="8.60571429" r="1.59428571"></circle>
                    <path d="M20.4342857,7.09714286 C21.2921021,7.09694014 21.9927804,7.78238636 22.0114286,8.64 C22.0114286,7.75950031 21.2976425,7.04571429 20.4171429,7.04571429 C19.5366432,7.04571429 18.8228571,7.75950031 18.8228571,8.64 L18.8228571,8.64 C18.8318521,8.22168326 19.0067051,7.82408492 19.3089285,7.53472211 C19.6111518,7.24535931 20.0159733,7.08795022 20.4342857,7.09714286 Z" id="Path" fill="#FFBC00"></path>
                    <circle id="Oval" fill="#0042C0" opacity="0.3" cx="32.5028571" cy="8.60571429" r="4.16571429"></circle>
                    <path d="M32.5028571,12.6171429 C30.2315992,12.6173174 28.3824418,10.7910835 28.3542857,8.52 C28.3542857,8.52 28.3542857,8.52 28.3542857,8.52 C28.4954518,10.7216949 30.3223556,12.4352144 32.5285714,12.4352144 C34.7347873,12.4352144 36.561691,10.7216949 36.7028571,8.52 C36.7028571,8.52 36.7028571,8.52 36.7028571,8.52 C36.6893017,9.62029652 36.2391668,10.670133 35.4514954,11.4385144 C34.6638241,12.2068959 33.6031516,12.6308674 32.5028571,12.6171429 Z" id="Path" fill="#00E6FF" opacity="0.4"></path>
                    <circle id="Oval" fill="#00B3FF" opacity="0.3" cx="32.5028571" cy="8.60571429" r="3.24"></circle>
                    <circle id="Oval" fill="#45D788" cx="32.5028571" cy="8.60571429" r="2.64"></circle>
                    <path d="M32.5028571,6.03428571 C33.9476038,6.03416387 35.1240942,7.19537523 35.1428571,8.64 L35.1428571,8.64 C35.0317166,7.25966155 33.8790913,6.19611181 32.4942857,6.19611181 C31.1094801,6.19611181 29.9568548,7.25966155 29.8457143,8.64 L29.8457143,8.64 C29.8502207,7.94137033 30.1332682,7.27340905 30.632088,6.78424386 C31.1309078,6.29507868 31.8042728,6.02513858 32.5028571,6.03428571 L32.5028571,6.03428571 Z" id="Path" fill="#91F6AB"></path>
                    <circle id="Oval" fill="#11AB6B" cx="32.5028571" cy="8.60571429" r="1.59428571"></circle>
                    <path d="M32.5028571,7.09714286 C33.36733,7.08754268 34.0784021,7.775677 34.0971429,8.64 L34.0971429,8.64 C34.0971429,7.75950031 33.3833568,7.04571429 32.5028571,7.04571429 C31.6223575,7.04571429 30.9085714,7.75950031 30.9085714,8.64 C30.9273122,7.775677 31.6383843,7.08754268 32.5028571,7.09714286 Z" id="Path" fill="#91F6AB"></path>
                    <path d="M79.5257143,39.6171429 L11.5714286,39.6171429 C11.0980416,39.6171429 10.7142857,39.2333869 10.7142857,38.76 C10.7142857,38.2866131 11.0980416,37.9028571 11.5714286,37.9028571 L79.5257143,37.9028571 C79.9991012,37.9028571 80.3828571,38.2866131 80.3828571,38.76 C80.3828571,39.2333869 79.9991012,39.6171429 79.5257143,39.6171429 Z" id="Path" fill="#00DA8F"></path>
                    <path d="M90.3942857,39.6171429 L85.3542857,39.6171429 C84.8808988,39.6171429 84.4971429,39.2333869 84.4971429,38.76 C84.4971429,38.2866131 84.8808988,37.9028571 85.3542857,37.9028571 L90.3942857,37.9028571 C90.8676726,37.9028571 91.2514286,38.2866131 91.2514286,38.76 C91.2514286,39.2333869 90.8676726,39.6171429 90.3942857,39.6171429 Z" id="Path" fill="#00DA8F"></path>
                    <path d="M98.3828571,39.6171429 L94.6114286,39.6171429 C94.1380416,39.6171429 93.7542857,39.2333869 93.7542857,38.76 C93.7542857,38.2866131 94.1380416,37.9028571 94.6114286,37.9028571 L98.3828571,37.9028571 C98.8562441,37.9028571 99.24,38.2866131 99.24,38.76 C99.24,39.2333869 98.8562441,39.6171429 98.3828571,39.6171429 Z" id="Path" fill="#00DA8F"></path>
                    <path d="M49.6971429,47.2971429 L11.5714286,47.2971429 C11.0980416,47.2971429 10.7142857,46.9133869 10.7142857,46.44 C10.7142857,45.9666131 11.0980416,45.5828571 11.5714286,45.5828571 L49.6971429,45.5828571 C50.1705298,45.5828571 50.5542857,45.9666131 50.5542857,46.44 C50.5542857,46.9133869 50.1705298,47.2971429 49.6971429,47.2971429 Z" id="Path" fill="#00FCFF"></path>
                    <path d="M62.9485714,47.2971429 L52.0971429,47.2971429 C51.6237559,47.2971429 51.24,46.9133869 51.24,46.44 C51.24,45.9666131 51.6237559,45.5828571 52.0971429,45.5828571 L63.0342857,45.5828571 C63.5076726,45.5828571 63.8914286,45.9666131 63.8914286,46.44 C63.8914286,46.9133869 63.5076726,47.2971429 63.0342857,47.2971429 L62.9485714,47.2971429 Z" id="Path" fill="#00FCFF"></path>
                    <path d="M62.9485714,51.7028571 L56.0914286,51.7028571 C55.6180416,51.7028571 55.2342857,51.3191012 55.2342857,50.8457143 C55.2342857,50.3723274 55.6180416,49.9885714 56.0914286,49.9885714 L62.9485714,49.9885714 C63.4219584,49.9885714 63.8057143,50.3723274 63.8057143,50.8457143 C63.8057143,51.3191012 63.4219584,51.7028571 62.9485714,51.7028571 Z" id="Path" fill="#00FCFF"></path>
                    <path d="M52.8514286,51.7028571 L52.0971429,51.7028571 C51.6237559,51.7028571 51.24,51.3191012 51.24,50.8457143 C51.24,50.3723274 51.6237559,49.9885714 52.0971429,49.9885714 L52.8857143,49.9885714 C53.3591012,49.9885714 53.7428571,50.3723274 53.7428571,50.8457143 C53.7428571,51.3191012 53.3591012,51.7028571 52.8857143,51.7028571 L52.8514286,51.7028571 Z" id="Path" fill="#00FCFF"></path>
                    <path d="M48.1028571,51.7028571 L42.12,51.7028571 C41.6466131,51.7028571 41.2628571,51.3191012 41.2628571,50.8457143 C41.2628571,50.3723274 41.6466131,49.9885714 42.12,49.9885714 L48.1028571,49.9885714 C48.5762441,49.9885714 48.96,50.3723274 48.96,50.8457143 C48.96,51.3191012 48.5762441,51.7028571 48.1028571,51.7028571 Z" id="Path" fill="#00FCFF"></path>
                    <path d="M37.3714286,51.7028571 L31.3885714,51.7028571 C30.9151845,51.7028571 30.5314286,51.3191012 30.5314286,50.8457143 C30.5314286,50.3723274 30.9151845,49.9885714 31.3885714,49.9885714 L37.3714286,49.9885714 C37.8448155,49.9885714 38.2285714,50.3723274 38.2285714,50.8457143 C38.2285714,51.3191012 37.8448155,51.7028571 37.3714286,51.7028571 Z" id="Path" fill="#00FCFF"></path>
                    <path d="M26.6228571,51.7028571 L20.64,51.7028571 C20.1666131,51.7028571 19.7828571,51.3191012 19.7828571,50.8457143 C19.7828571,50.3723274 20.1666131,49.9885714 20.64,49.9885714 L26.6228571,49.9885714 C27.0962441,49.9885714 27.48,50.3723274 27.48,50.8457143 C27.48,51.3191012 27.0962441,51.7028571 26.6228571,51.7028571 Z" id="Path" fill="#00FCFF"></path>
                    <path d="M83.52,57.0685714 L20.64,57.0685714 C20.1666131,57.0685714 19.7828571,56.6848155 19.7828571,56.2114286 C19.7828571,55.7380416 20.1666131,55.3542857 20.64,55.3542857 L83.52,55.3542857 C83.9933869,55.3542857 84.3771429,55.7380416 84.3771429,56.2114286 C84.3771429,56.6848155 83.9933869,57.0685714 83.52,57.0685714 Z" id="Path" fill="#FF4F92"></path>
                    <path d="M13.7314286,51.7028571 L11.5714286,51.7028571 C11.0980416,51.7028571 10.7142857,51.3191012 10.7142857,50.8457143 C10.7142857,50.3723274 11.0980416,49.9885714 11.5714286,49.9885714 L13.7314286,49.9885714 C14.2048155,49.9885714 14.5885714,50.3723274 14.5885714,50.8457143 C14.5885714,51.3191012 14.2048155,51.7028571 13.7314286,51.7028571 Z" id="Path" fill="#00FCFF"></path>
                    <path d="M13.7314286,57.0685714 L11.5714286,57.0685714 C11.0980416,57.0685714 10.7142857,56.6848155 10.7142857,56.2114286 C10.7142857,55.7380416 11.0980416,55.3542857 11.5714286,55.3542857 L13.7314286,55.3542857 C14.2048155,55.3542857 14.5885714,55.7380416 14.5885714,56.2114286 C14.5885714,56.6848155 14.2048155,57.0685714 13.7314286,57.0685714 Z" id="Path" fill="#00FCFF"></path>
                    <path d="M13.7314286,62.4342857 L11.5714286,62.4342857 C11.0980416,62.4342857 10.7142857,62.0505298 10.7142857,61.5771429 C10.7142857,61.1037559 11.0980416,60.72 11.5714286,60.72 L13.7314286,60.72 C14.2048155,60.72 14.5885714,61.1037559 14.5885714,61.5771429 C14.5885714,62.0505298 14.2048155,62.4342857 13.7314286,62.4342857 Z" id="Path" fill="#00FCFF"></path>
                    <path d="M13.7314286,67.8 L11.5714286,67.8 C11.0980416,67.8 10.7142857,67.4162441 10.7142857,66.9428571 C10.7142857,66.4694702 11.0980416,66.0857143 11.5714286,66.0857143 L13.7314286,66.0857143 C14.2048155,66.0857143 14.5885714,66.4694702 14.5885714,66.9428571 C14.5885714,67.4162441 14.2048155,67.8 13.7314286,67.8 Z" id="Path" fill="#00FCFF"></path>
                    <path d="M96.9257143,57.0685714 L89.1257143,57.0685714 C88.6523274,57.0685714 88.2685714,56.6848155 88.2685714,56.2114286 C88.2685714,55.7380416 88.6523274,55.3542857 89.1257143,55.3542857 L96.9257143,55.3542857 C97.3991012,55.3542857 97.7828571,55.7380416 97.7828571,56.2114286 C97.7828571,56.6848155 97.3991012,57.0685714 96.9257143,57.0685714 Z" id="Path" fill="#FF4F92"></path>
                    <path d="M46.0285714,62.4342857 L20.4342857,62.4342857 C19.9608988,62.4342857 19.5771429,62.0505298 19.5771429,61.5771429 C19.5771429,61.1037559 19.9608988,60.72 20.4342857,60.72 L46.0285714,60.72 C46.5019584,60.72 46.8857143,61.1037559 46.8857143,61.5771429 C46.8857143,62.0505298 46.5019584,62.4342857 46.0285714,62.4342857 Z" id="Path" fill="#FF4F92"></path>
                    <path d="M85.3542857,78.9257143 L56.2114286,78.9257143 C55.7380416,78.9257143 55.3542857,78.5419584 55.3542857,78.0685714 C55.3542857,77.5951845 55.7380416,77.2114286 56.2114286,77.2114286 L85.3542857,77.2114286 C85.8276726,77.2114286 86.2114286,77.5951845 86.2114286,78.0685714 C86.2114286,78.5419584 85.8276726,78.9257143 85.3542857,78.9257143 Z" id="Path" fill="#FFD600"></path>
                    <path d="M85.3542857,73.3885714 L64.0971429,73.3885714 C63.6237559,73.3885714 63.24,73.0048155 63.24,72.5314286 C63.24,72.0580416 63.6237559,71.6742857 64.0971429,71.6742857 L85.3542857,71.6742857 C85.8276726,71.6742857 86.2114286,72.0580416 86.2114286,72.5314286 C86.2114286,73.0048155 85.8276726,73.3885714 85.3542857,73.3885714 Z" id="Path" fill="#FFD600"></path>
                    <path d="M85.3542857,67.8 L76.9371429,67.8 C76.4637559,67.8 76.08,67.4162441 76.08,66.9428571 C76.08,66.4694702 76.4637559,66.0857143 76.9371429,66.0857143 L85.3542857,66.0857143 C85.8276726,66.0857143 86.2114286,66.4694702 86.2114286,66.9428571 C86.2114286,67.4162441 85.8276726,67.8 85.3542857,67.8 Z" id="Path" fill="#FFD600"></path>
                    <path d="M42.12,32.2457143 L11.5714286,32.2457143 C11.0980416,32.2457143 10.7142857,31.8619584 10.7142857,31.3885714 C10.7142857,30.9151845 11.0980416,30.5314286 11.5714286,30.5314286 L42.12,30.5314286 C42.5933869,30.5314286 42.9771429,30.9151845 42.9771429,31.3885714 C42.9771429,31.8619584 42.5933869,32.2457143 42.12,32.2457143 Z" id="Path" fill="#FF4F92"></path>
                    <path d="M61.9371429,91.9885714 L11.5714286,91.9885714 C11.0980416,91.9885714 10.7142857,91.6048155 10.7142857,91.1314286 C10.7142857,90.6580416 11.0980416,90.2742857 11.5714286,90.2742857 L61.9371429,90.2742857 C62.4105298,90.2742857 62.7942857,90.6580416 62.7942857,91.1314286 C62.7942857,91.6048155 62.4105298,91.9885714 61.9371429,91.9885714 Z" id="Path" fill="#FFD600"></path>
                    <path d="M61.9371429,98.6057143 L11.5714286,98.6057143 C11.120803,98.596608 10.7576777,98.2334827 10.7485714,97.7828571 C10.7485714,97.3284057 11.1169771,96.96 11.5714286,96.96 L61.9371429,96.96 C62.1567927,96.9552747 62.3688463,97.0404501 62.5241981,97.1958019 C62.6795499,97.3511537 62.7647253,97.5632073 62.7601866,97.7828571 C62.7601866,98.0010924 62.6733064,98.2103894 62.5189907,98.364705 C62.3646751,98.5190207 62.1553781,98.6057143 61.9371429,98.6057143 L61.9371429,98.6057143 Z" id="Path" fill="#FFD600"></path>
                    <path d="M61.9371429,105.222857 L11.5714286,105.222857 C11.0980416,105.222857 10.7142857,104.839101 10.7142857,104.365714 C10.7142857,103.892327 11.0980416,103.508571 11.5714286,103.508571 L61.9371429,103.508571 C62.4105298,103.508571 62.7942857,103.892327 62.7942857,104.365714 C62.7942857,104.839101 62.4105298,105.222857 61.9371429,105.222857 Z" id="Path" fill="#FFD600"></path>
                    <path d="M61.9371429,144.72 L11.5714286,144.72 C11.0980416,144.72 10.7142857,144.336244 10.7142857,143.862857 C10.7142857,143.38947 11.0980416,143.005714 11.5714286,143.005714 L61.9371429,143.005714 C62.4105298,143.005714 62.7942857,143.38947 62.7942857,143.862857 C62.7942857,144.336244 62.4105298,144.72 61.9371429,144.72 Z" id="Path" fill="#FFD600"></path>
                    <path d="M72.6685714,84.3085714 L58.9542857,84.3085714 C58.7346359,84.3132967 58.5225822,84.2281214 58.3672304,84.0727696 C58.2118786,83.9174178 58.1267033,83.7053641 58.1314286,83.4857143 C58.1314286,83.0312628 58.4998343,82.6628571 58.9542857,82.6628571 L72.6685714,82.6628571 C73.119197,82.6719635 73.4823223,83.0350887 73.4914286,83.4857143 C73.4914286,83.9401657 73.1230229,84.3085714 72.6685714,84.3085714 Z" id="Path" fill="#00DA8F"></path>
                    <path d="M98.3828571,84.3085714 L79.5257143,84.3085714 C79.0712628,84.3085714 78.7028571,83.9401657 78.7028571,83.4857143 C78.7119635,83.0350887 79.0750887,82.6719635 79.5257143,82.6628571 L98.3828571,82.6628571 C98.8401633,82.6627619 99.2135244,83.0285034 99.2228572,83.4857143 C99.2228572,83.7069525 99.1338623,83.9188899 98.9758189,84.0737079 C98.8177754,84.228526 98.6040473,84.3131806 98.3828571,84.3085714 Z" id="Path" fill="#00DA8F"></path>
                    <path d="M98.3828571,91.9885714 L79.5257143,91.9885714 C79.0523274,91.9885714 78.6685714,91.6048155 78.6685714,91.1314286 C78.6685714,90.6580416 79.0523274,90.2742857 79.5257143,90.2742857 L98.3828571,90.2742857 C98.8562441,90.2742857 99.24,90.6580416 99.24,91.1314286 C99.24,91.6048155 98.8562441,91.9885714 98.3828571,91.9885714 Z" id="Path" fill="#00DA8F"></path>
                    <path d="M17.8114286,154.765714 L11.6057143,154.765714 C11.1323274,154.765714 10.7485714,154.381958 10.7485714,153.908571 C10.7485714,153.435185 11.1323274,153.051429 11.6057143,153.051429 L17.8114286,153.051429 C18.2848155,153.051429 18.6685714,153.435185 18.6685714,153.908571 C18.6685714,154.381958 18.2848155,154.765714 17.8114286,154.765714 Z" id="Path" fill="#00DA8F"></path>
                    <path d="M17.8114286,159.788571 L11.6057143,159.788571 C11.1323274,159.788571 10.7485714,159.404815 10.7485714,158.931429 C10.7485714,158.458042 11.1323274,158.074286 11.6057143,158.074286 L17.8114286,158.074286 C18.2848155,158.074286 18.6685714,158.458042 18.6685714,158.931429 C18.6685714,159.404815 18.2848155,159.788571 17.8114286,159.788571 Z" id="Path" fill="#00DA8F"></path>
                    <path d="M68.2285714,159.788571 L21.4971429,159.788571 C21.0237559,159.788571 20.64,159.404815 20.64,158.931429 C20.64,158.458042 21.0237559,158.074286 21.4971429,158.074286 L68.2285714,158.074286 C68.7019584,158.074286 69.0857143,158.458042 69.0857143,158.931429 C69.0857143,159.404815 68.7019584,159.788571 68.2285714,159.788571 Z" id="Path" fill="#00DA8F"></path>
                    <path d="M29.9485714,154.765714 L23.7428571,154.765714 C23.2694702,154.765714 22.8857143,154.381958 22.8857143,153.908571 C22.8857143,153.435185 23.2694702,153.051429 23.7428571,153.051429 L29.9485714,153.051429 C30.4219584,153.051429 30.8057143,153.435185 30.8057143,153.908571 C30.8057143,154.381958 30.4219584,154.765714 29.9485714,154.765714 Z" id="Path" fill="#00DA8F"></path>
                    <path d="M42.12,154.765714 L35.9142857,154.765714 C35.4408988,154.765714 35.0571429,154.381958 35.0571429,153.908571 C35.0571429,153.435185 35.4408988,153.051429 35.9142857,153.051429 L42.12,153.051429 C42.5933869,153.051429 42.9771429,153.435185 42.9771429,153.908571 C42.9771429,154.381958 42.5933869,154.765714 42.12,154.765714 Z" id="Path" fill="#00DA8F"></path>
                    <path d="M54.2914286,154.765714 L48.0857143,154.765714 C47.6123274,154.765714 47.2285714,154.381958 47.2285714,153.908571 C47.2285714,153.435185 47.6123274,153.051429 48.0857143,153.051429 L54.2914286,153.051429 C54.7648155,153.051429 55.1485714,153.435185 55.1485714,153.908571 C55.1485714,154.381958 54.7648155,154.765714 54.2914286,154.765714 Z" id="Path" fill="#00DA8F"></path>
                    <path d="M66.4457143,154.765714 L60.24,154.765714 C59.7666131,154.765714 59.3828571,154.381958 59.3828571,153.908571 C59.3828571,153.435185 59.7666131,153.051429 60.24,153.051429 L66.4457143,153.051429 C66.9191012,153.051429 67.3028571,153.435185 67.3028571,153.908571 C67.3028571,154.381958 66.9191012,154.765714 66.4457143,154.765714 Z" id="Path" fill="#00DA8F"></path>
                    <path d="M78.6171429,154.765714 L72.4114286,154.765714 C71.9380416,154.765714 71.5542857,154.381958 71.5542857,153.908571 C71.5542857,153.435185 71.9380416,153.051429 72.4114286,153.051429 L78.6171429,153.051429 C79.0905298,153.051429 79.4742857,153.435185 79.4742857,153.908571 C79.4742857,154.381958 79.0905298,154.765714 78.6171429,154.765714 Z" id="Path" fill="#00DA8F"></path>
                    <path d="M88.3028571,154.765714 L84.6685714,154.765714 C84.1951845,154.765714 83.8114286,154.381958 83.8114286,153.908571 C83.8114286,153.435185 84.1951845,153.051429 84.6685714,153.051429 L88.3885714,153.051429 C88.8619584,153.051429 89.2457143,153.435185 89.2457143,153.908571 C89.2457143,154.381958 88.8619584,154.765714 88.3885714,154.765714 L88.3028571,154.765714 Z" id="Path" fill="#00DA8F"></path>
                </g>
            </g>
            <g id="toppr-code-assets-09" transform="translate(1.000000, 112.000000)">
                <path d="M189.274037,134.681242 C189.274037,134.681242 162.839255,132.037764 139.671056,156.433292 C113.443975,184.076522 87.1980124,245.273043 145.335652,261.568199 L189.274037,261.568199 L189.274037,134.681242 Z" id="Path" fill="#F4CB1C" fill-rule="nonzero"></path>
                <path d="M189.274037,134.813416 C189.274037,134.813416 209.930932,132.09441 237.158758,151.807205 C268.011925,174.163478 289.121988,234.208199 234.968447,260.888447 L189.274037,261.530435 L189.274037,134.813416 Z" id="Path" fill="#F4CB1C" fill-rule="nonzero"></path>
                <path d="M200.357764,261.417143 L234.968447,260.926211 C254.28472,251.485217 264.027826,237.663602 267.162236,222.879006 C253.385437,214.942898 236.423921,214.948186 222.652073,222.892884 C208.880226,230.837582 200.384519,245.518046 200.357764,261.417143 L200.357764,261.417143 Z" id="Path" fill="#F2A51D" fill-rule="nonzero"></path>
                <path d="M241.501615,155.394783 C241.501615,155.394783 229.096149,169.782857 231.928447,201.240248" id="Path" stroke="#F2A51D" stroke-width="1.88819876"></path>
                <path d="M166.955528,144.386584 C166.955528,144.386584 153.454907,138.45764 159.667081,134.681242 L165.879255,130.904845 L165.879255,130.904845 C165.879255,130.904845 156.966957,127.128447 162.499379,124.522733 C168.031801,121.917019 203.095652,122.030311 213.027578,128.412422 C222.959503,134.794534 207.532919,132.47205 207.532919,132.47205 C207.532919,132.47205 224.375652,135.889689 218.692174,142.800497 L183.609441,170.613665 L166.955528,144.386584 Z" id="Path" fill="#F4CB1C" fill-rule="nonzero"></path>
                <path d="M189.746087,123.333168 C177.793789,122.483478 165.558261,123.06882 162.499379,124.541615 C156.966957,127.147329 165.879255,130.923727 165.879255,130.923727 L159.667081,134.700124 C156.608199,136.588323 158.32646,138.929689 160.856646,140.874534 C152.890934,144.710138 145.707171,149.992317 139.671056,156.452174 C131.124992,165.613011 124.065778,176.055296 118.749814,187.399752 C153.549317,181.39528 181.381366,156.055652 189.746087,123.333168 Z" id="Path" fill="#FFE471" fill-rule="nonzero"></path>
                <path d="M178.832298,129.205466 C178.832298,129.205466 178.549068,143.59354 188.63205,150.768696 C188.63205,150.768696 197.46882,145.236273 197.638758,129.205466 L178.832298,129.205466 Z" id="Path" fill="#FFFFFF" fill-rule="nonzero"></path>
                <path d="M139.671056,156.433292 C139.671056,156.433292 152.642981,170.311553 151.000248,201.863354" id="Path" stroke="#F2A51D" stroke-width="1.88819876"></path>
                <path d="M188.63205,150.768696 C187.036616,158.209717 186.402041,165.824623 186.743851,173.427081 C187.40472,185.492671 187.423602,212.418385 185.101118,216.855652" id="Path" stroke="#F2A51D" stroke-width="1.88819876" stroke-linecap="round"></path>
                <rect id="Rectangle" fill="#FF8992" fill-rule="nonzero" x="178.832298" y="103.695901" width="18.9575155" height="32.7791304" rx="9.47875776"></rect>
                <rect id="Rectangle" fill="#0A1223" fill-rule="nonzero" x="145.335652" y="254.676273" width="76.4154037" height="38.2737888"></rect>
                <ellipse id="Oval" fill="#1A2952" fill-rule="nonzero" opacity="0.5" cx="180.059627" cy="326.880994" rx="179.435528" ry="6.94857143"></ellipse>
                <path d="M245.781361,183.083051 L127.214956,183.083051 C125.877082,183.054972 124.592782,183.60669 123.694665,184.595324 C122.796547,185.583957 122.372953,186.912262 122.533583,188.236233 L131.896329,267.082029 L236.014315,267.082029 L250.420176,188.745189 C250.67668,187.36088 250.309536,185.934185 249.416188,184.843765 C248.522841,183.753345 247.193637,183.109477 245.781361,183.083051 L245.781361,183.083051 Z" id="Path" fill="#B6FFFF" fill-rule="nonzero"></path>
                <path d="M133.714352,310.522333 C133.714352,310.522333 130.325126,311.280977 123.777755,306.795084 C117.230385,302.309191 109.450569,300.462059 105.445119,302.688513 C101.439668,304.914967 98.651259,311.693283 101.301018,315.7009 C103.950778,319.708517 106.600537,321.506173 114.734681,323.38629 C127.413471,326.338403 138.859815,322.743092 144.190145,322.677123 L133.714352,310.522333 Z" id="Path" fill="#FF8992" fill-rule="nonzero"></path>
                <path d="M207.15528,268.13913 C234.250932,258.263851 255.587578,244.234534 276.357764,245.480745 L276.357764,245.688447 C282.607702,245.688447 293.200497,248.161988 291.80323,264.570435 C290.85913,275.578634 282.362236,284.641988 271.278509,291.609441 L271.278509,291.609441 L271.146335,291.609441 C268.276764,293.401172 265.31445,295.039899 262.271801,296.518758 C249.05441,303.523975 223.204969,315.967205 198.488447,320.819876 C163.254658,327.730683 149.980621,327.825093 145.071304,326.125714 C145.071304,326.125714 133.855404,324.596273 134.969441,305.355528 C134.931677,305.37441 180.040745,278.033292 207.15528,268.13913 Z" id="Path" fill="#1A2952" fill-rule="nonzero"></path>
                <path d="M148.791056,72.4839752 C148.791056,72.4839752 138.198261,52.5823602 142.635528,43.7267081 C144.997418,38.6372727 149.770762,35.0856778 155.324224,34.2857143 C155.324224,34.2857143 149.848447,20.0298137 157.929938,22.1068323 L163.594534,25.675528 C163.594534,25.675528 152.605217,-1.9110559 171.902609,1.1289441 C191.2,4.1689441 214.368199,26.1664596 214.368199,26.1664596 C214.368199,26.1664596 228.303106,16.9709317 230.984348,25.8832298 C233.66559,34.795528 219.183106,88.6469565 219.183106,88.6469565 L148.791056,72.4839752 Z" id="Path" fill="#000000" fill-rule="nonzero"></path>
                <path d="M197.808696,120.935155 L197.808696,113.174658 C197.808696,107.960541 193.581819,103.733665 188.367702,103.733665 C183.153585,103.733665 178.926708,107.960541 178.926708,113.174658 L178.926708,122.162484 C185.215217,123.477877 191.743382,123.053546 197.808696,120.935155 Z" id="Path" fill="#D65C70" fill-rule="nonzero"></path>
                <path d="M216.331925,62.7975155 C216.331925,62.7975155 224.300124,84.6439752 216.331925,97.3326708 C208.464593,110.495726 192.99367,117.067243 178.058137,113.590062 C162.102857,110.040248 147.846957,100.901366 151.736646,77.0156522 L157.401242,55.1691925 C160.505624,55.5221399 163.60929,54.5013787 165.898137,52.3746584 C165.898137,52.3746584 158.987329,68.6320497 166.162484,64.3269565 C170.876009,61.3588218 175.169187,57.7705883 178.926708,53.6586335 C178.926708,53.6586335 173.262112,63.3073292 178.66236,61.2114286 C184.062609,59.115528 189.292919,52.3180124 189.292919,52.3180124 C189.292919,52.3180124 203.039006,69.1418634 216.331925,62.7975155 Z" id="Path" fill="#FF8992" fill-rule="nonzero"></path>
                <ellipse id="Oval" fill="#FF8992" fill-rule="nonzero" cx="150.735901" cy="75.8638509" rx="7.2884472" ry="10.8760248"></ellipse>
                <ellipse id="Oval" fill="#FF8992" fill-rule="nonzero" cx="221.751056" cy="77.1289441" rx="7.2884472" ry="10.8760248"></ellipse>
                <path d="M197.128944,93.1786335 L185.101118,96.1053416 C185.101118,96.1053416 185.988571,107.58559 192.899379,105.433043 C199.810186,103.280497 197.128944,93.1786335 197.128944,93.1786335 Z" id="Path" fill="#FFFFFF" fill-rule="nonzero"></path>
                <path d="M208.315999,67.900928 C208.315999,67.900928 197.570643,63.8714194 195.563268,64.5651443 C193.555894,65.2588693 194.574341,69.1407769 194.574341,69.1407769 L206.839988,71.3547926 L208.315999,67.900928 Z" id="Path" fill="#1A2952" fill-rule="nonzero"></path>
                <path d="M161.862641,70.972288 C161.862641,70.972288 170.436991,65.5735012 172.27803,65.8434406 C174.119069,66.1133799 173.848706,69.7845549 173.848706,69.7845549 L163.690806,73.833645 L161.862641,70.972288 Z" id="Path" fill="#1A2952" fill-rule="nonzero"></path>
                <ellipse id="Oval" fill="#1A2952" fill-rule="nonzero" cx="200.338882" cy="77.3744099" rx="1.94484472" ry="3.45540373"></ellipse>
                <ellipse id="Oval" fill="#1A2952" fill-rule="nonzero" cx="170.165466" cy="79.2626087" rx="1.94484472" ry="3.45540373"></ellipse>
                <path d="M184.666832,77.261118 C184.666832,77.261118 187.291429,88.5903106 183.382857,87.986087 C182.368365,87.8800235 181.455147,87.3239318 180.895265,86.4713024 C180.335384,85.6186729 180.188044,84.5596656 180.493913,83.5865839 L184.666832,77.261118 Z" id="Path" fill="#D65C70" fill-rule="nonzero"></path>
                <path d="M158.571925,138.533168 C158.571925,138.533168 158.080994,136.512795 160.61118,137.570186 C163.141366,138.627578 165.917019,139.987081 165.917019,139.987081 L160.856646,140.855652 C159.939688,140.251423 159.161042,139.459908 158.571925,138.533168 L158.571925,138.533168 Z" id="Path" fill="#F2A51D" fill-rule="nonzero"></path>
                <path d="M165.879255,130.923727 C167.548108,131.648809 169.307573,132.144254 171.109565,132.396522 C171.109565,132.396522 166.181366,129.469814 165.123975,127.751553 C164.066584,126.033292 161.744099,124.333913 160.70559,126.29764 C160.70559,126.29764 159.478261,129.167702 165.879255,130.923727 Z" id="Path" fill="#F2A51D" fill-rule="nonzero"></path>
                <path d="M245.459025,183.082029 L127.63172,183.082029 C126.162586,183.083547 124.764408,183.714248 123.790646,184.814692 C122.816883,185.915137 122.360738,187.379998 122.537523,188.838959 L130.061589,252.399727 C134.580292,252.826166 139.184253,253.082029 143.852158,253.082029 C196.115644,253.082029 239.768018,225.704631 250.425335,189.116145 L250.425335,189.116145 C250.67996,187.636769 250.277938,186.11981 249.324122,184.960914 C248.370305,183.802018 246.959266,183.11609 245.459025,183.082029 L245.459025,183.082029 Z" id="Path" fill="#FFFFFF" fill-rule="nonzero"></path>
                <path d="M134.931677,305.37441 C133.81764,324.520745 145.03354,326.144596 145.03354,326.144596 C149.508571,327.692919 160.913292,327.749565 189.538385,322.538137 L134.931677,305.37441 Z" id="Path" fill="#0A1223" fill-rule="nonzero"></path>
                <path d="M227.584754,307.519836 C227.584754,307.519836 231.216647,308.450976 238.447265,304.07117 C245.677883,299.691364 254.119131,298.122221 258.348048,300.622504 C262.576964,303.122787 265.280154,310.347743 262.278452,314.417169 C259.276751,318.486595 256.324802,320.228172 247.502121,321.831802 C233.753997,324.314841 221.581351,320.107468 215.859876,319.745359 L227.584754,307.519836 Z" id="Path" fill="#FF8992" fill-rule="nonzero"></path>
                <path d="M157.363478,264.003975 C130.68323,253.014658 109.950807,238.21118 89.1239752,238.418882 L89.1239752,238.626584 C82.8740373,238.418882 72.1301863,240.420373 72.9421118,256.791056 C73.4330435,267.837019 81.5900621,277.25913 92.333913,284.66087 L92.333913,284.66087 L92.447205,284.75528 C95.2488482,286.661174 98.1480274,288.41959 101.132919,290.023354 C114.067081,297.576149 139.350062,311.057888 163.858882,316.911304 C198.790559,325.257143 212.045714,325.89913 217.011677,324.464099 C217.011677,324.464099 228.34087,323.406708 227.96323,304.222609 C227.925466,304.147081 184.024845,274.97441 157.363478,264.003975 Z" id="Path" fill="#1A2952" fill-rule="nonzero"></path>
                <polygon id="Path" fill="#000000" fill-rule="nonzero" points="175.150311 217.372919 163.821118 221.810186 163.821118 221.810186 175.150311 226.266335 175.150311 231.137888 156.985839 224.038261 156.985839 219.506584 175.150311 212.406957"></polygon>
                <polygon id="Path" fill="#000000" fill-rule="nonzero" points="188.63205 205.420621 192.729441 206.666832 181.966708 234.612174 177.907081 233.365963"></polygon>
                <polygon id="Path" fill="#000000" fill-rule="nonzero" points="195.486211 226.322981 206.815404 221.866832 206.815404 221.866832 195.486211 217.429565 195.486211 212.53913 213.650683 219.638758 213.650683 224.170435 195.486211 231.270062"></polygon>
                <path d="M227.925466,304.147081 C227.925466,304.147081 192.672795,281.734161 151.623354,261.568199 C151.623354,261.568199 111.97118,238.475528 89.0673292,238.418882" id="Path" stroke="#627DDD" stroke-width="3.77639752" stroke-linecap="round"></path>
                <path d="M183.533913,278.561988 C183.533913,278.561988 229.945839,259.075776 251.509068,249.785839 C273.072298,240.495901 289.877267,244.95205 290.783602,254.676273" id="Path" stroke="#627DDD" stroke-width="3.77639752" stroke-linecap="round"></path>
            </g>
        </g>
    </g>
</svg>